STARTFONT 2.1
FONT -Misc-Ohsnapmod-Bold-R-Normal--12-87-100-100-C-70-ISO8859-1
SIZE 8 100 100
FONTBOUNDINGBOX 7 12 0 -2
COMMENT "Generated by fontforge, http://fontforge.sourceforge.net"
STARTPROPERTIES 24
FONTNAME_REGISTRY ""
FOUNDRY "Misc"
FAMILY_NAME "Ohsnapmod"
WEIGHT_NAME "Bold"
SLANT "R"
SETWIDTH_NAME "Normal"
ADD_STYLE_NAME ""
PIXEL_SIZE 12
POINT_SIZE 87
RESOLUTION_X 100
RESOLUTION_Y 100
SPACING "C"
AVERAGE_WIDTH 70
CHARSET_REGISTRY "ISO8859"
CHARSET_ENCODING "1"
COPYRIGHT "Copyright (c) 2015, Dan Church"
CAP_HEIGHT 7
X_HEIGHT 5
WEIGHT 10
QUAD_WIDTH 7
_GBDFED_INFO "Edited with gbdfed 1.6."
RESOLUTION 138
FONT_ASCENT 10
FONT_DESCENT 2
ENDPROPERTIES
CHARS 256
STARTCHAR U+0000
ENCODING 0
SWIDTH 420 0
DWIDTH 6 0
BBX 5 8 0 0
BITMAP
F8
F8
F8
F8
F8
F8
F8
F8
ENDCHAR
STARTCHAR U+0001
ENCODING 1
SWIDTH 420 0
DWIDTH 6 0
BBX 5 5 0 2
BITMAP
20
70
F8
70
20
ENDCHAR
STARTCHAR U+0002
ENCODING 2
SWIDTH 420 0
DWIDTH 7 0
BBX 7 12 0 -2
BITMAP
AA
54
AA
54
AA
54
AA
54
AA
54
AA
54
ENDCHAR
STARTCHAR U+0003
ENCODING 3
SWIDTH 420 0
DWIDTH 6 0
BBX 6 11 0 -1
BITMAP
90
90
F0
90
90
00
7C
10
10
10
10
ENDCHAR
STARTCHAR U+0004
ENCODING 4
SWIDTH 420 0
DWIDTH 6 0
BBX 6 11 0 -1
BITMAP
F0
80
E0
80
80
00
3C
20
38
20
20
ENDCHAR
STARTCHAR U+0005
ENCODING 5
SWIDTH 420 0
DWIDTH 6 0
BBX 6 11 0 -1
BITMAP
60
90
80
90
60
00
38
24
38
28
24
ENDCHAR
STARTCHAR U+0006
ENCODING 6
SWIDTH 420 0
DWIDTH 6 0
BBX 6 11 0 -1
BITMAP
80
80
80
80
F0
00
3C
20
38
20
20
ENDCHAR
STARTCHAR U+0007
ENCODING 7
SWIDTH 420 0
DWIDTH 6 0
BBX 3 3 1 6
BITMAP
40
A0
40
ENDCHAR
STARTCHAR U+0008
ENCODING 8
SWIDTH 420 0
DWIDTH 6 0
BBX 5 7 0 0
BITMAP
20
20
F8
20
20
00
F8
ENDCHAR
STARTCHAR U+0009
ENCODING 9
SWIDTH 420 0
DWIDTH 6 0
BBX 6 11 0 -1
BITMAP
90
D0
B0
90
90
00
20
20
20
20
3C
ENDCHAR
STARTCHAR U+000a
ENCODING 10
SWIDTH 420 0
DWIDTH 6 0
BBX 6 11 0 -1
BITMAP
88
88
88
50
20
00
7C
10
10
10
10
ENDCHAR
STARTCHAR U+000b
ENCODING 11
SWIDTH 420 0
DWIDTH 7 0
BBX 4 7 0 3
BITMAP
30
30
30
30
30
30
F0
ENDCHAR
STARTCHAR U+000c
ENCODING 12
SWIDTH 420 0
DWIDTH 7 0
BBX 4 6 0 -2
BITMAP
F0
30
30
30
30
30
ENDCHAR
STARTCHAR U+000d
ENCODING 13
SWIDTH 420 0
DWIDTH 7 0
BBX 5 6 2 -2
BITMAP
F8
C0
C0
C0
C0
C0
ENDCHAR
STARTCHAR U+000e
ENCODING 14
SWIDTH 420 0
DWIDTH 7 0
BBX 5 7 2 3
BITMAP
C0
C0
C0
C0
C0
C0
F8
ENDCHAR
STARTCHAR U+000f
ENCODING 15
SWIDTH 420 0
DWIDTH 7 0
BBX 7 12 0 -2
BITMAP
30
30
30
30
30
30
FE
30
30
30
30
30
ENDCHAR
STARTCHAR U+0010
ENCODING 16
SWIDTH 420 0
DWIDTH 6 0
BBX 6 1 0 9
BITMAP
FC
ENDCHAR
STARTCHAR U+0011
ENCODING 17
SWIDTH 420 0
DWIDTH 7 0
BBX 7 1 0 6
BITMAP
FE
ENDCHAR
STARTCHAR U+0012
ENCODING 18
SWIDTH 420 0
DWIDTH 7 0
BBX 7 1 0 3
BITMAP
FE
ENDCHAR
STARTCHAR U+0013
ENCODING 19
SWIDTH 420 0
DWIDTH 7 0
BBX 7 1 0 0
BITMAP
FE
ENDCHAR
STARTCHAR U+0014
ENCODING 20
SWIDTH 420 0
DWIDTH 6 0
BBX 6 1 0 -2
BITMAP
FC
ENDCHAR
STARTCHAR U+0015
ENCODING 21
SWIDTH 420 0
DWIDTH 7 0
BBX 5 12 2 -2
BITMAP
C0
C0
C0
C0
C0
C0
F8
C0
C0
C0
C0
C0
ENDCHAR
STARTCHAR U+0016
ENCODING 22
SWIDTH 420 0
DWIDTH 7 0
BBX 4 12 0 -2
BITMAP
30
30
30
30
30
30
F0
30
30
30
30
30
ENDCHAR
STARTCHAR U+0017
ENCODING 23
SWIDTH 420 0
DWIDTH 7 0
BBX 7 7 0 3
BITMAP
30
30
30
30
30
30
FE
ENDCHAR
STARTCHAR U+0018
ENCODING 24
SWIDTH 420 0
DWIDTH 7 0
BBX 7 6 0 -2
BITMAP
FE
30
30
30
30
30
ENDCHAR
STARTCHAR U+0019
ENCODING 25
SWIDTH 420 0
DWIDTH 7 0
BBX 2 12 2 -2
BITMAP
C0
C0
C0
C0
C0
C0
C0
C0
C0
C0
C0
C0
ENDCHAR
STARTCHAR U+001a
ENCODING 26
SWIDTH 420 0
DWIDTH 6 0
BBX 5 9 0 0
BITMAP
10
20
40
80
40
20
10
00
F8
ENDCHAR
STARTCHAR U+001b
ENCODING 27
SWIDTH 420 0
DWIDTH 6 0
BBX 5 9 0 0
BITMAP
40
20
10
08
10
20
40
00
F8
ENDCHAR
STARTCHAR U+001c
ENCODING 28
SWIDTH 420 0
DWIDTH 6 0
BBX 5 6 0 0
BITMAP
F8
88
88
88
88
88
ENDCHAR
STARTCHAR U+001d
ENCODING 29
SWIDTH 420 0
DWIDTH 6 0
BBX 5 6 0 1
BITMAP
08
F8
20
40
F8
80
ENDCHAR
STARTCHAR U+001e
ENCODING 30
SWIDTH 420 0
DWIDTH 6 0
BBX 5 8 0 0
BITMAP
30
48
40
F0
40
40
48
F8
ENDCHAR
STARTCHAR U+001f
ENCODING 31
SWIDTH 420 0
DWIDTH 6 0
BBX 1 2 2 3
BITMAP
80
80
ENDCHAR
STARTCHAR U+0020
ENCODING 32
SWIDTH 420 0
DWIDTH 7 0
BBX 1 1 6 -2
BITMAP
00
ENDCHAR
STARTCHAR U+0021
ENCODING 33
SWIDTH 420 0
DWIDTH 7 0
BBX 2 8 2 0
BITMAP
C0
C0
C0
C0
C0
00
C0
C0
ENDCHAR
STARTCHAR U+0022
ENCODING 34
SWIDTH 420 0
DWIDTH 7 0
BBX 5 3 0 5
BITMAP
D8
D8
D8
ENDCHAR
STARTCHAR U+0023
ENCODING 35
SWIDTH 420 0
DWIDTH 7 0
BBX 6 7 0 0
BITMAP
6C
6C
FC
48
FC
D8
D8
ENDCHAR
STARTCHAR U+0024
ENCODING 36
SWIDTH 420 0
DWIDTH 7 0
BBX 6 9 0 -1
BITMAP
30
30
FC
C0
FC
0C
FC
30
30
ENDCHAR
STARTCHAR U+0025
ENCODING 37
SWIDTH 420 0
DWIDTH 7 0
BBX 7 8 0 0
BITMAP
F2
D4
D8
F0
3E
5A
9A
1E
ENDCHAR
STARTCHAR U+0026
ENCODING 38
SWIDTH 420 0
DWIDTH 7 0
BBX 6 8 0 0
BITMAP
F8
D8
D8
70
DC
D8
DC
F4
ENDCHAR
STARTCHAR U+0027
ENCODING 39
SWIDTH 420 0
DWIDTH 7 0
BBX 2 3 2 5
BITMAP
C0
C0
C0
ENDCHAR
STARTCHAR U+0028
ENCODING 40
SWIDTH 420 0
DWIDTH 7 0
BBX 4 9 1 -1
BITMAP
30
60
C0
C0
C0
C0
C0
60
30
ENDCHAR
STARTCHAR U+0029
ENCODING 41
SWIDTH 420 0
DWIDTH 7 0
BBX 4 9 1 -1
BITMAP
C0
60
30
30
30
30
30
60
C0
ENDCHAR
STARTCHAR U+002A
ENCODING 42
SWIDTH 420 0
DWIDTH 7 0
BBX 6 5 0 1
BITMAP
30
FC
78
FC
30
ENDCHAR
STARTCHAR U+002B
ENCODING 43
SWIDTH 420 0
DWIDTH 7 0
BBX 6 5 0 1
BITMAP
30
30
FC
30
30
ENDCHAR
STARTCHAR U+002C
ENCODING 44
SWIDTH 420 0
DWIDTH 7 0
BBX 2 4 2 -2
BITMAP
C0
C0
40
80
ENDCHAR
STARTCHAR U+002D
ENCODING 45
SWIDTH 420 0
DWIDTH 7 0
BBX 6 1 0 3
BITMAP
FC
ENDCHAR
STARTCHAR U+002E
ENCODING 46
SWIDTH 420 0
DWIDTH 7 0
BBX 2 2 2 0
BITMAP
C0
C0
ENDCHAR
STARTCHAR U+002F
ENCODING 47
SWIDTH 420 0
DWIDTH 7 0
BBX 5 8 0 -1
BITMAP
18
18
30
30
60
60
C0
C0
ENDCHAR
STARTCHAR U+0030
ENCODING 48
SWIDTH 420 0
DWIDTH 7 0
BBX 6 7 0 0
BITMAP
FC
CC
DC
FC
EC
CC
FC
ENDCHAR
STARTCHAR U+0031
ENCODING 49
SWIDTH 420 0
DWIDTH 7 0
BBX 4 7 1 0
BITMAP
30
70
F0
30
30
30
30
ENDCHAR
STARTCHAR U+0032
ENCODING 50
SWIDTH 420 0
DWIDTH 7 0
BBX 6 7 0 0
BITMAP
FC
0C
0C
FC
C0
C0
FC
ENDCHAR
STARTCHAR U+0033
ENCODING 51
SWIDTH 420 0
DWIDTH 7 0
BBX 6 7 0 0
BITMAP
FC
0C
0C
FC
0C
0C
FC
ENDCHAR
STARTCHAR U+0034
ENCODING 52
SWIDTH 420 0
DWIDTH 7 0
BBX 6 7 0 0
BITMAP
CC
CC
CC
FC
0C
0C
0C
ENDCHAR
STARTCHAR U+0035
ENCODING 53
SWIDTH 420 0
DWIDTH 7 0
BBX 6 7 0 0
BITMAP
FC
C0
C0
FC
0C
0C
FC
ENDCHAR
STARTCHAR U+0036
ENCODING 54
SWIDTH 420 0
DWIDTH 7 0
BBX 6 7 0 0
BITMAP
FC
C0
C0
FC
CC
CC
FC
ENDCHAR
STARTCHAR U+0037
ENCODING 55
SWIDTH 420 0
DWIDTH 7 0
BBX 6 7 0 0
BITMAP
FC
0C
0C
0C
0C
0C
0C
ENDCHAR
STARTCHAR U+0038
ENCODING 56
SWIDTH 420 0
DWIDTH 7 0
BBX 6 7 0 0
BITMAP
FC
CC
CC
78
CC
CC
FC
ENDCHAR
STARTCHAR U+0039
ENCODING 57
SWIDTH 420 0
DWIDTH 7 0
BBX 6 7 0 0
BITMAP
FC
CC
CC
FC
0C
0C
0C
ENDCHAR
STARTCHAR U+003A
ENCODING 58
SWIDTH 420 0
DWIDTH 7 0
BBX 2 5 2 0
BITMAP
C0
C0
00
C0
C0
ENDCHAR
STARTCHAR U+003B
ENCODING 59
SWIDTH 420 0
DWIDTH 7 0
BBX 2 7 2 -2
BITMAP
C0
C0
00
C0
C0
40
80
ENDCHAR
STARTCHAR U+003C
ENCODING 60
SWIDTH 420 0
DWIDTH 7 0
BBX 5 7 0 0
BITMAP
18
30
60
C0
60
30
18
ENDCHAR
STARTCHAR U+003D
ENCODING 61
SWIDTH 420 0
DWIDTH 7 0
BBX 6 3 0 2
BITMAP
FC
00
FC
ENDCHAR
STARTCHAR U+003E
ENCODING 62
SWIDTH 420 0
DWIDTH 7 0
BBX 5 7 1 0
BITMAP
C0
60
30
18
30
60
C0
ENDCHAR
STARTCHAR U+003F
ENCODING 63
SWIDTH 420 0
DWIDTH 7 0
BBX 6 8 0 0
BITMAP
FC
0C
0C
3C
30
00
30
30
ENDCHAR
STARTCHAR U+0040
ENCODING 64
SWIDTH 420 0
DWIDTH 7 0
BBX 6 9 0 -1
BITMAP
FC
C4
C4
DC
DC
DC
DC
C0
FC
ENDCHAR
STARTCHAR U+0041
ENCODING 65
SWIDTH 420 0
DWIDTH 7 0
BBX 6 7 0 0
BITMAP
FC
CC
CC
FC
CC
CC
CC
ENDCHAR
STARTCHAR U+0042
ENCODING 66
SWIDTH 420 0
DWIDTH 7 0
BBX 6 7 0 0
BITMAP
F8
D8
D8
FC
CC
CC
FC
ENDCHAR
STARTCHAR U+0043
ENCODING 67
SWIDTH 420 0
DWIDTH 7 0
BBX 6 7 0 0
BITMAP
FC
C0
C0
C0
C0
C0
FC
ENDCHAR
STARTCHAR U+0044
ENCODING 68
SWIDTH 420 0
DWIDTH 7 0
BBX 6 7 0 0
BITMAP
F8
CC
CC
CC
CC
CC
F8
ENDCHAR
STARTCHAR U+0045
ENCODING 69
SWIDTH 420 0
DWIDTH 7 0
BBX 6 7 0 0
BITMAP
FC
C0
C0
FC
C0
C0
FC
ENDCHAR
STARTCHAR U+0046
ENCODING 70
SWIDTH 420 0
DWIDTH 7 0
BBX 6 7 0 0
BITMAP
FC
C0
C0
FC
C0
C0
C0
ENDCHAR
STARTCHAR U+0047
ENCODING 71
SWIDTH 420 0
DWIDTH 7 0
BBX 6 7 0 0
BITMAP
FC
C0
C0
DC
CC
CC
FC
ENDCHAR
STARTCHAR U+0048
ENCODING 72
SWIDTH 420 0
DWIDTH 7 0
BBX 6 7 0 0
BITMAP
CC
CC
CC
FC
CC
CC
CC
ENDCHAR
STARTCHAR U+0049
ENCODING 73
SWIDTH 420 0
DWIDTH 7 0
BBX 6 7 0 0
BITMAP
FC
30
30
30
30
30
FC
ENDCHAR
STARTCHAR U+004A
ENCODING 74
SWIDTH 420 0
DWIDTH 7 0
BBX 6 7 0 0
BITMAP
0C
0C
0C
0C
0C
0C
FC
ENDCHAR
STARTCHAR U+004B
ENCODING 75
SWIDTH 420 0
DWIDTH 7 0
BBX 6 7 0 0
BITMAP
CC
D8
F0
E0
F0
D8
CC
ENDCHAR
STARTCHAR U+004C
ENCODING 76
SWIDTH 420 0
DWIDTH 7 0
BBX 6 7 0 0
BITMAP
C0
C0
C0
C0
C0
C0
FC
ENDCHAR
STARTCHAR U+004D
ENCODING 77
SWIDTH 420 0
DWIDTH 7 0
BBX 6 7 0 0
BITMAP
FC
D4
D4
D4
D4
D4
D4
ENDCHAR
STARTCHAR U+004E
ENCODING 78
SWIDTH 420 0
DWIDTH 7 0
BBX 6 7 0 0
BITMAP
FC
CC
CC
CC
CC
CC
CC
ENDCHAR
STARTCHAR U+004F
ENCODING 79
SWIDTH 420 0
DWIDTH 7 0
BBX 6 7 0 0
BITMAP
FC
CC
CC
CC
CC
CC
FC
ENDCHAR
STARTCHAR U+0050
ENCODING 80
SWIDTH 420 0
DWIDTH 7 0
BBX 6 7 0 0
BITMAP
FC
CC
CC
FC
C0
C0
C0
ENDCHAR
STARTCHAR U+0051
ENCODING 81
SWIDTH 420 0
DWIDTH 7 0
BBX 7 8 0 -1
BITMAP
FC
CC
CC
CC
CC
CC
FC
06
ENDCHAR
STARTCHAR U+0052
ENCODING 82
SWIDTH 420 0
DWIDTH 7 0
BBX 6 7 0 0
BITMAP
FC
CC
CC
FC
F0
D8
CC
ENDCHAR
STARTCHAR U+0053
ENCODING 83
SWIDTH 420 0
DWIDTH 7 0
BBX 6 7 0 0
BITMAP
FC
C0
C0
FC
0C
0C
FC
ENDCHAR
STARTCHAR U+0054
ENCODING 84
SWIDTH 420 0
DWIDTH 7 0
BBX 6 7 0 0
BITMAP
FC
30
30
30
30
30
30
ENDCHAR
STARTCHAR U+0055
ENCODING 85
SWIDTH 420 0
DWIDTH 7 0
BBX 6 7 0 0
BITMAP
CC
CC
CC
CC
CC
CC
FC
ENDCHAR
STARTCHAR U+0056
ENCODING 86
SWIDTH 420 0
DWIDTH 7 0
BBX 6 7 0 0
BITMAP
CC
CC
CC
CC
CC
78
30
ENDCHAR
STARTCHAR U+0057
ENCODING 87
SWIDTH 420 0
DWIDTH 7 0
BBX 6 7 0 0
BITMAP
D4
D4
D4
D4
D4
D4
FC
ENDCHAR
STARTCHAR U+0058
ENCODING 88
SWIDTH 420 0
DWIDTH 7 0
BBX 6 7 0 0
BITMAP
CC
CC
78
30
78
CC
CC
ENDCHAR
STARTCHAR U+0059
ENCODING 89
SWIDTH 420 0
DWIDTH 7 0
BBX 6 7 0 0
BITMAP
CC
CC
CC
FC
30
30
30
ENDCHAR
STARTCHAR U+005A
ENCODING 90
SWIDTH 420 0
DWIDTH 7 0
BBX 6 7 0 0
BITMAP
FC
0C
18
30
60
C0
FC
ENDCHAR
STARTCHAR U+005B
ENCODING 91
SWIDTH 420 0
DWIDTH 7 0
BBX 4 9 1 -1
BITMAP
F0
C0
C0
C0
C0
C0
C0
C0
F0
ENDCHAR
STARTCHAR U+005C
ENCODING 92
SWIDTH 420 0
DWIDTH 7 0
BBX 5 8 1 -1
BITMAP
C0
C0
60
60
30
30
18
18
ENDCHAR
STARTCHAR U+005D
ENCODING 93
SWIDTH 420 0
DWIDTH 7 0
BBX 4 9 1 -1
BITMAP
F0
30
30
30
30
30
30
30
F0
ENDCHAR
STARTCHAR U+005E
ENCODING 94
SWIDTH 420 0
DWIDTH 7 0
BBX 6 3 0 5
BITMAP
30
78
CC
ENDCHAR
STARTCHAR U+005F
ENCODING 95
SWIDTH 420 0
DWIDTH 7 0
BBX 6 1 0 -1
BITMAP
FC
ENDCHAR
STARTCHAR U+0060
ENCODING 96
SWIDTH 420 0
DWIDTH 7 0
BBX 4 3 1 5
BITMAP
C0
60
30
ENDCHAR
STARTCHAR U+0061
ENCODING 97
SWIDTH 420 0
DWIDTH 7 0
BBX 6 5 0 0
BITMAP
FC
0C
FC
CC
FC
ENDCHAR
STARTCHAR U+0062
ENCODING 98
SWIDTH 420 0
DWIDTH 7 0
BBX 6 7 0 0
BITMAP
C0
C0
FC
CC
CC
CC
FC
ENDCHAR
STARTCHAR U+0063
ENCODING 99
SWIDTH 420 0
DWIDTH 7 0
BBX 6 5 0 0
BITMAP
FC
C0
C0
C0
FC
ENDCHAR
STARTCHAR U+0064
ENCODING 100
SWIDTH 420 0
DWIDTH 7 0
BBX 6 7 0 0
BITMAP
0C
0C
FC
CC
CC
CC
FC
ENDCHAR
STARTCHAR U+0065
ENCODING 101
SWIDTH 420 0
DWIDTH 7 0
BBX 6 5 0 0
BITMAP
FC
CC
FC
C0
FC
ENDCHAR
STARTCHAR U+0066
ENCODING 102
SWIDTH 420 0
DWIDTH 7 0
BBX 6 7 0 0
BITMAP
7C
60
F8
60
60
60
60
ENDCHAR
STARTCHAR U+0067
ENCODING 103
SWIDTH 420 0
DWIDTH 7 0
BBX 6 7 0 -2
BITMAP
FC
CC
CC
CC
FC
0C
FC
ENDCHAR
STARTCHAR U+0068
ENCODING 104
SWIDTH 420 0
DWIDTH 7 0
BBX 6 7 0 0
BITMAP
C0
C0
FC
CC
CC
CC
CC
ENDCHAR
STARTCHAR U+0069
ENCODING 105
SWIDTH 420 0
DWIDTH 7 0
BBX 6 8 0 0
BITMAP
30
30
00
F0
30
30
30
3C
ENDCHAR
STARTCHAR U+006A
ENCODING 106
SWIDTH 420 0
DWIDTH 7 0
BBX 5 10 0 -2
BITMAP
18
18
00
18
18
18
18
18
18
F8
ENDCHAR
STARTCHAR U+006B
ENCODING 107
SWIDTH 420 0
DWIDTH 7 0
BBX 6 7 0 0
BITMAP
C0
C0
D8
F0
F0
D8
CC
ENDCHAR
STARTCHAR U+006C
ENCODING 108
SWIDTH 420 0
DWIDTH 7 0
BBX 6 7 0 0
BITMAP
F0
30
30
30
30
30
3C
ENDCHAR
STARTCHAR U+006D
ENCODING 109
SWIDTH 420 0
DWIDTH 7 0
BBX 6 5 0 0
BITMAP
FC
D4
D4
D4
D4
ENDCHAR
STARTCHAR U+006E
ENCODING 110
SWIDTH 420 0
DWIDTH 7 0
BBX 6 5 0 0
BITMAP
FC
CC
CC
CC
CC
ENDCHAR
STARTCHAR U+006F
ENCODING 111
SWIDTH 420 0
DWIDTH 7 0
BBX 6 5 0 0
BITMAP
FC
CC
CC
CC
FC
ENDCHAR
STARTCHAR U+0070
ENCODING 112
SWIDTH 420 0
DWIDTH 7 0
BBX 6 7 0 -2
BITMAP
FC
CC
CC
CC
FC
C0
C0
ENDCHAR
STARTCHAR U+0071
ENCODING 113
SWIDTH 420 0
DWIDTH 7 0
BBX 6 7 0 -2
BITMAP
FC
CC
CC
CC
FC
0C
0C
ENDCHAR
STARTCHAR U+0072
ENCODING 114
SWIDTH 420 0
DWIDTH 7 0
BBX 6 5 0 0
BITMAP
FC
C0
C0
C0
C0
ENDCHAR
STARTCHAR U+0073
ENCODING 115
SWIDTH 420 0
DWIDTH 7 0
BBX 6 5 0 0
BITMAP
FC
C0
FC
0C
FC
ENDCHAR
STARTCHAR U+0074
ENCODING 116
SWIDTH 420 0
DWIDTH 7 0
BBX 6 7 0 0
BITMAP
60
60
F8
60
60
60
7C
ENDCHAR
STARTCHAR U+0075
ENCODING 117
SWIDTH 420 0
DWIDTH 7 0
BBX 6 5 0 0
BITMAP
CC
CC
CC
CC
FC
ENDCHAR
STARTCHAR U+0076
ENCODING 118
SWIDTH 420 0
DWIDTH 7 0
BBX 6 5 0 0
BITMAP
CC
CC
CC
78
30
ENDCHAR
STARTCHAR U+0077
ENCODING 119
SWIDTH 420 0
DWIDTH 7 0
BBX 6 5 0 0
BITMAP
D4
D4
D4
D4
FC
ENDCHAR
STARTCHAR U+0078
ENCODING 120
SWIDTH 420 0
DWIDTH 7 0
BBX 6 5 0 0
BITMAP
CC
78
30
78
CC
ENDCHAR
STARTCHAR U+0079
ENCODING 121
SWIDTH 420 0
DWIDTH 7 0
BBX 6 7 0 -2
BITMAP
CC
CC
CC
CC
FC
0C
FC
ENDCHAR
STARTCHAR U+007A
ENCODING 122
SWIDTH 420 0
DWIDTH 7 0
BBX 6 5 0 0
BITMAP
FC
18
30
60
FC
ENDCHAR
STARTCHAR U+007B
ENCODING 123
SWIDTH 420 0
DWIDTH 7 0
BBX 5 9 0 -1
BITMAP
78
60
60
60
C0
60
60
60
78
ENDCHAR
STARTCHAR U+007C
ENCODING 124
SWIDTH 420 0
DWIDTH 7 0
BBX 2 9 2 -1
BITMAP
C0
C0
C0
C0
C0
C0
C0
C0
C0
ENDCHAR
STARTCHAR U+007D
ENCODING 125
SWIDTH 420 0
DWIDTH 7 0
BBX 5 9 1 -1
BITMAP
F0
30
30
30
18
30
30
30
F0
ENDCHAR
STARTCHAR U+007E
ENCODING 126
SWIDTH 420 0
DWIDTH 7 0
BBX 5 3 1 5
BITMAP
E8
A8
B8
ENDCHAR
STARTCHAR uni007F
ENCODING 127
SWIDTH 583 0
DWIDTH 7 0
BBX 5 6 0 0
BITMAP
20
50
88
88
88
F8
ENDCHAR
STARTCHAR uni0080
ENCODING 128
SWIDTH 583 0
DWIDTH 7 0
BBX 6 7 0 0
BITMAP
38
44
F0
40
F0
44
38
ENDCHAR
STARTCHAR uni0081
ENCODING 129
SWIDTH 583 0
DWIDTH 7 0
BBX 1 1 0 0
BITMAP
00
ENDCHAR
STARTCHAR uni0082
ENCODING 130
SWIDTH 583 0
DWIDTH 7 0
BBX 2 3 1 -1
BITMAP
40
40
80
ENDCHAR
STARTCHAR uni0083
ENCODING 131
SWIDTH 583 0
DWIDTH 7 0
BBX 5 10 0 -2
BITMAP
10
28
20
70
20
20
20
20
A0
40
ENDCHAR
STARTCHAR uni0084
ENCODING 132
SWIDTH 583 0
DWIDTH 7 0
BBX 4 3 0 -1
BITMAP
50
50
A0
ENDCHAR
STARTCHAR uni0085
ENCODING 133
SWIDTH 583 0
DWIDTH 7 0
BBX 5 2 0 0
BITMAP
A8
A8
ENDCHAR
STARTCHAR uni0086
ENCODING 134
SWIDTH 583 0
DWIDTH 7 0
BBX 3 8 1 0
BITMAP
40
E0
40
40
40
40
40
40
ENDCHAR
STARTCHAR uni0087
ENCODING 135
SWIDTH 583 0
DWIDTH 7 0
BBX 3 8 1 0
BITMAP
40
E0
40
40
40
40
E0
40
ENDCHAR
STARTCHAR uni0088
ENCODING 136
SWIDTH 583 0
DWIDTH 7 0
BBX 3 2 1 8
BITMAP
40
A0
ENDCHAR
STARTCHAR uni0089
ENCODING 137
SWIDTH 583 0
DWIDTH 7 0
BBX 6 8 0 0
BITMAP
44
A8
50
20
40
A8
54
28
ENDCHAR
STARTCHAR uni008A
ENCODING 138
SWIDTH 583 0
DWIDTH 7 0
BBX 6 10 0 0
BITMAP
48
30
00
FC
C0
C0
FC
0C
0C
FC
ENDCHAR
STARTCHAR uni008B
ENCODING 139
SWIDTH 583 0
DWIDTH 7 0
BBX 4 7 1 0
BITMAP
10
20
40
80
40
20
10
ENDCHAR
STARTCHAR uni008C
ENCODING 140
SWIDTH 583 0
DWIDTH 7 0
BBX 6 8 0 0
BITMAP
7C
90
90
9C
90
90
90
7C
ENDCHAR
STARTCHAR uni008D
ENCODING 141
SWIDTH 583 0
DWIDTH 7 0
BBX 1 1 0 0
BITMAP
00
ENDCHAR
STARTCHAR uni008E
ENCODING 142
SWIDTH 583 0
DWIDTH 7 0
BBX 6 10 0 0
BITMAP
48
30
00
FC
0C
18
30
60
C0
FC
ENDCHAR
STARTCHAR uni008F
ENCODING 143
SWIDTH 583 0
DWIDTH 7 0
BBX 1 1 0 0
BITMAP
00
ENDCHAR
STARTCHAR uni0090
ENCODING 144
SWIDTH 583 0
DWIDTH 7 0
BBX 1 1 0 0
BITMAP
00
ENDCHAR
STARTCHAR uni0091
ENCODING 145
SWIDTH 583 0
DWIDTH 7 0
BBX 2 3 2 6
BITMAP
40
80
80
ENDCHAR
STARTCHAR uni0092
ENCODING 146
SWIDTH 583 0
DWIDTH 7 0
BBX 2 3 1 6
BITMAP
40
40
80
ENDCHAR
STARTCHAR uni0093
ENCODING 147
SWIDTH 583 0
DWIDTH 7 0
BBX 4 3 1 6
BITMAP
50
A0
A0
ENDCHAR
STARTCHAR uni0094
ENCODING 148
SWIDTH 583 0
DWIDTH 7 0
BBX 4 3 1 6
BITMAP
50
50
A0
ENDCHAR
STARTCHAR uni0095
ENCODING 149
SWIDTH 583 0
DWIDTH 7 0
BBX 4 4 1 2
BITMAP
60
F0
F0
60
ENDCHAR
STARTCHAR uni0096
ENCODING 150
SWIDTH 583 0
DWIDTH 7 0
BBX 5 1 0 3
BITMAP
F8
ENDCHAR
STARTCHAR uni0097
ENCODING 151
SWIDTH 583 0
DWIDTH 7 0
BBX 5 1 0 3
BITMAP
F8
ENDCHAR
STARTCHAR uni0098
ENCODING 152
SWIDTH 583 0
DWIDTH 7 0
BBX 4 2 1 8
BITMAP
50
A0
ENDCHAR
STARTCHAR uni0099
ENCODING 153
SWIDTH 583 0
DWIDTH 7 0
BBX 6 4 0 4
BITMAP
F4
5C
54
54
ENDCHAR
STARTCHAR uni009A
ENCODING 154
SWIDTH 583 0
DWIDTH 7 0
BBX 6 8 0 0
BITMAP
48
30
00
FC
C0
FC
0C
FC
ENDCHAR
STARTCHAR uni009B
ENCODING 155
SWIDTH 583 0
DWIDTH 7 0
BBX 4 7 1 0
BITMAP
80
40
20
10
20
40
80
ENDCHAR
STARTCHAR uni009C
ENCODING 156
SWIDTH 583 0
DWIDTH 7 0
BBX 5 6 0 0
BITMAP
70
A8
A8
B0
A0
78
ENDCHAR
STARTCHAR uni009D
ENCODING 157
SWIDTH 583 0
DWIDTH 7 0
BBX 1 1 0 0
BITMAP
00
ENDCHAR
STARTCHAR uni009E
ENCODING 158
SWIDTH 1000 0
DWIDTH 7 0
BBX 6 8 0 0
BITMAP
48
30
00
FC
18
30
60
FC
ENDCHAR
STARTCHAR uni009F
ENCODING 159
SWIDTH 1000 0
DWIDTH 7 0
BBX 6 10 0 0
BITMAP
48
48
00
CC
CC
CC
FC
30
30
30
ENDCHAR
STARTCHAR U+00A0
ENCODING 160
SWIDTH 420 0
DWIDTH 7 0
BBX 1 1 6 -2
BITMAP
00
ENDCHAR
STARTCHAR U+00A1
ENCODING 161
SWIDTH 420 0
DWIDTH 7 0
BBX 2 8 2 0
BITMAP
C0
C0
00
C0
C0
C0
C0
C0
ENDCHAR
STARTCHAR U+00A2
ENCODING 162
SWIDTH 420 0
DWIDTH 7 0
BBX 6 7 0 -1
BITMAP
10
FC
D0
D0
D0
FC
10
ENDCHAR
STARTCHAR U+00A3
ENCODING 163
SWIDTH 420 0
DWIDTH 7 0
BBX 6 7 0 0
BITMAP
7C
60
60
F8
60
60
FC
ENDCHAR
STARTCHAR U+00A4
ENCODING 164
SWIDTH 420 0
DWIDTH 7 0
BBX 6 6 0 0
BITMAP
CC
78
48
48
78
CC
ENDCHAR
STARTCHAR U+00A5
ENCODING 165
SWIDTH 420 0
DWIDTH 7 0
BBX 6 7 0 0
BITMAP
CC
78
30
FC
30
FC
30
ENDCHAR
STARTCHAR U+00A6
ENCODING 166
SWIDTH 420 0
DWIDTH 7 0
BBX 2 7 2 0
BITMAP
C0
C0
C0
00
C0
C0
C0
ENDCHAR
STARTCHAR U+00A7
ENCODING 167
SWIDTH 420 0
DWIDTH 7 0
BBX 6 7 0 0
BITMAP
FC
C0
FC
CC
FC
0C
FC
ENDCHAR
STARTCHAR U+00A8
ENCODING 168
SWIDTH 420 0
DWIDTH 7 0
BBX 4 2 1 8
BITMAP
90
90
ENDCHAR
STARTCHAR U+00A9
ENCODING 169
SWIDTH 420 0
DWIDTH 7 0
BBX 6 7 0 0
BITMAP
FC
84
B4
A4
B4
84
FC
ENDCHAR
STARTCHAR U+00AA
ENCODING 170
SWIDTH 420 0
DWIDTH 7 0
BBX 5 7 1 1
BITMAP
F8
18
F8
D8
F8
00
F8
ENDCHAR
STARTCHAR U+00AB
ENCODING 171
SWIDTH 420 0
DWIDTH 7 0
BBX 6 7 0 0
BITMAP
14
28
50
A0
50
28
14
ENDCHAR
STARTCHAR U+00AC
ENCODING 172
SWIDTH 420 0
DWIDTH 7 0
BBX 6 3 0 1
BITMAP
FC
0C
0C
ENDCHAR
STARTCHAR U+00AD
ENCODING 173
SWIDTH 420 0
DWIDTH 7 0
BBX 4 1 1 3
BITMAP
F0
ENDCHAR
STARTCHAR U+00AE
ENCODING 174
SWIDTH 420 0
DWIDTH 7 0
BBX 6 7 0 0
BITMAP
FC
84
B4
A4
A4
84
FC
ENDCHAR
STARTCHAR U+00AF
ENCODING 175
SWIDTH 420 0
DWIDTH 7 0
BBX 4 1 1 8
BITMAP
F0
ENDCHAR
STARTCHAR U+00B0
ENCODING 176
SWIDTH 420 0
DWIDTH 7 0
BBX 4 4 1 4
BITMAP
F0
D0
D0
F0
ENDCHAR
STARTCHAR U+00B1
ENCODING 177
SWIDTH 420 0
DWIDTH 7 0
BBX 6 7 0 0
BITMAP
30
30
FC
30
30
00
FC
ENDCHAR
STARTCHAR U+00B2
ENCODING 178
SWIDTH 420 0
DWIDTH 7 0
BBX 4 5 1 3
BITMAP
F0
30
F0
C0
F0
ENDCHAR
STARTCHAR U+00B3
ENCODING 179
SWIDTH 420 0
DWIDTH 7 0
BBX 4 5 1 3
BITMAP
F0
30
F0
30
F0
ENDCHAR
STARTCHAR U+00B4
ENCODING 180
SWIDTH 420 0
DWIDTH 7 0
BBX 2 2 3 8
BITMAP
40
80
ENDCHAR
STARTCHAR U+00B5
ENCODING 181
SWIDTH 420 0
DWIDTH 7 0
BBX 6 7 0 -2
BITMAP
CC
CC
CC
CC
FC
C0
C0
ENDCHAR
STARTCHAR U+00B6
ENCODING 182
SWIDTH 420 0
DWIDTH 7 0
BBX 6 7 0 0
BITMAP
FC
F4
F4
F4
34
34
34
ENDCHAR
STARTCHAR U+00B7
ENCODING 183
SWIDTH 420 0
DWIDTH 7 0
BBX 2 2 2 3
BITMAP
C0
C0
ENDCHAR
STARTCHAR U+00B8
ENCODING 184
SWIDTH 420 0
DWIDTH 7 0
BBX 2 3 2 -2
BITMAP
40
40
80
ENDCHAR
STARTCHAR U+00B9
ENCODING 185
SWIDTH 420 0
DWIDTH 7 0
BBX 3 5 1 3
BITMAP
60
E0
60
60
60
ENDCHAR
STARTCHAR U+00BA
ENCODING 186
SWIDTH 420 0
DWIDTH 7 0
BBX 5 7 1 1
BITMAP
F8
D8
D8
D8
F8
00
F8
ENDCHAR
STARTCHAR U+00BB
ENCODING 187
SWIDTH 420 0
DWIDTH 7 0
BBX 6 7 0 0
BITMAP
A0
50
28
14
28
50
A0
ENDCHAR
STARTCHAR U+00BC
ENCODING 188
SWIDTH 420 0
DWIDTH 7 0
BBX 7 11 0 -1
BITMAP
60
E0
64
68
70
20
76
B6
3E
06
06
ENDCHAR
STARTCHAR U+00BD
ENCODING 189
SWIDTH 420 0
DWIDTH 7 0
BBX 7 11 0 -1
BITMAP
60
E0
64
68
70
20
5E
86
1E
18
1E
ENDCHAR
STARTCHAR U+00BE
ENCODING 190
SWIDTH 420 0
DWIDTH 7 0
BBX 7 11 0 -1
BITMAP
F0
30
F4
38
F0
20
76
B6
3E
06
06
ENDCHAR
STARTCHAR U+00BF
ENCODING 191
SWIDTH 420 0
DWIDTH 7 0
BBX 6 8 0 0
BITMAP
30
30
00
30
F0
C0
C0
FC
ENDCHAR
STARTCHAR U+00C0
ENCODING 192
SWIDTH 420 0
DWIDTH 7 0
BBX 6 10 0 0
BITMAP
40
20
00
FC
CC
CC
FC
CC
CC
CC
ENDCHAR
STARTCHAR U+00C1
ENCODING 193
SWIDTH 420 0
DWIDTH 7 0
BBX 6 10 0 0
BITMAP
08
10
00
FC
CC
CC
FC
CC
CC
CC
ENDCHAR
STARTCHAR U+00C2
ENCODING 194
SWIDTH 420 0
DWIDTH 7 0
BBX 6 10 0 0
BITMAP
30
48
00
FC
CC
CC
FC
CC
CC
CC
ENDCHAR
STARTCHAR U+00C3
ENCODING 195
SWIDTH 420 0
DWIDTH 7 0
BBX 6 10 0 0
BITMAP
28
50
00
FC
CC
CC
FC
CC
CC
CC
ENDCHAR
STARTCHAR U+00C4
ENCODING 196
SWIDTH 420 0
DWIDTH 7 0
BBX 6 10 0 0
BITMAP
48
48
00
FC
CC
CC
FC
CC
CC
CC
ENDCHAR
STARTCHAR U+00C5
ENCODING 197
SWIDTH 420 0
DWIDTH 7 0
BBX 6 10 0 0
BITMAP
30
48
30
FC
CC
CC
FC
CC
CC
CC
ENDCHAR
STARTCHAR U+00C6
ENCODING 198
SWIDTH 420 0
DWIDTH 7 0
BBX 6 7 0 0
BITMAP
FC
D8
D8
FC
D8
D8
DC
ENDCHAR
STARTCHAR U+00C7
ENCODING 199
SWIDTH 420 0
DWIDTH 7 0
BBX 6 9 0 -2
BITMAP
FC
C0
C0
C0
C0
C0
FC
20
40
ENDCHAR
STARTCHAR U+00C8
ENCODING 200
SWIDTH 420 0
DWIDTH 7 0
BBX 6 10 0 0
BITMAP
40
20
00
FC
C0
C0
FC
C0
C0
FC
ENDCHAR
STARTCHAR U+00C9
ENCODING 201
SWIDTH 420 0
DWIDTH 7 0
BBX 6 10 0 0
BITMAP
08
10
00
FC
C0
C0
FC
C0
C0
FC
ENDCHAR
STARTCHAR U+00CA
ENCODING 202
SWIDTH 420 0
DWIDTH 7 0
BBX 6 10 0 0
BITMAP
30
48
00
FC
C0
C0
FC
C0
C0
FC
ENDCHAR
STARTCHAR U+00CB
ENCODING 203
SWIDTH 420 0
DWIDTH 7 0
BBX 6 10 0 0
BITMAP
48
48
00
FC
C0
C0
FC
C0
C0
FC
ENDCHAR
STARTCHAR U+00CC
ENCODING 204
SWIDTH 420 0
DWIDTH 7 0
BBX 6 10 0 0
BITMAP
40
20
00
FC
30
30
30
30
30
FC
ENDCHAR
STARTCHAR U+00CD
ENCODING 205
SWIDTH 420 0
DWIDTH 7 0
BBX 6 10 0 0
BITMAP
08
10
00
FC
30
30
30
30
30
FC
ENDCHAR
STARTCHAR U+00CE
ENCODING 206
SWIDTH 420 0
DWIDTH 7 0
BBX 6 10 0 0
BITMAP
30
48
00
FC
30
30
30
30
30
FC
ENDCHAR
STARTCHAR U+00CF
ENCODING 207
SWIDTH 420 0
DWIDTH 7 0
BBX 6 10 0 0
BITMAP
48
48
00
FC
30
30
30
30
30
FC
ENDCHAR
STARTCHAR U+00D0
ENCODING 208
SWIDTH 420 0
DWIDTH 7 0
BBX 6 7 0 0
BITMAP
F8
CC
CC
EC
CC
CC
F8
ENDCHAR
STARTCHAR U+00D1
ENCODING 209
SWIDTH 420 0
DWIDTH 7 0
BBX 6 10 0 0
BITMAP
28
50
00
FC
CC
CC
CC
CC
CC
CC
ENDCHAR
STARTCHAR U+00D2
ENCODING 210
SWIDTH 420 0
DWIDTH 7 0
BBX 6 10 0 0
BITMAP
40
20
00
FC
CC
CC
CC
CC
CC
FC
ENDCHAR
STARTCHAR U+00D3
ENCODING 211
SWIDTH 420 0
DWIDTH 7 0
BBX 6 10 0 0
BITMAP
08
10
00
FC
CC
CC
CC
CC
CC
FC
ENDCHAR
STARTCHAR U+00D4
ENCODING 212
SWIDTH 420 0
DWIDTH 7 0
BBX 6 10 0 0
BITMAP
30
48
00
FC
CC
CC
CC
CC
CC
FC
ENDCHAR
STARTCHAR U+00D5
ENCODING 213
SWIDTH 420 0
DWIDTH 7 0
BBX 6 10 0 0
BITMAP
28
50
00
FC
CC
CC
CC
CC
CC
FC
ENDCHAR
STARTCHAR U+00D6
ENCODING 214
SWIDTH 420 0
DWIDTH 7 0
BBX 6 10 0 0
BITMAP
48
48
00
FC
CC
CC
CC
CC
CC
FC
ENDCHAR
STARTCHAR U+00D7
ENCODING 215
SWIDTH 420 0
DWIDTH 7 0
BBX 6 5 0 1
BITMAP
CC
78
30
78
CC
ENDCHAR
STARTCHAR U+00D8
ENCODING 216
SWIDTH 420 0
DWIDTH 7 0
BBX 7 7 0 0
BITMAP
FE
CC
CC
DC
EC
CC
FC
ENDCHAR
STARTCHAR U+00D9
ENCODING 217
SWIDTH 420 0
DWIDTH 7 0
BBX 6 10 0 0
BITMAP
40
20
00
CC
CC
CC
CC
CC
CC
FC
ENDCHAR
STARTCHAR U+00DA
ENCODING 218
SWIDTH 420 0
DWIDTH 7 0
BBX 6 10 0 0
BITMAP
08
10
00
CC
CC
CC
CC
CC
CC
FC
ENDCHAR
STARTCHAR U+00DB
ENCODING 219
SWIDTH 420 0
DWIDTH 7 0
BBX 6 10 0 0
BITMAP
30
48
00
CC
CC
CC
CC
CC
CC
FC
ENDCHAR
STARTCHAR U+00DC
ENCODING 220
SWIDTH 420 0
DWIDTH 7 0
BBX 6 10 0 0
BITMAP
48
48
00
CC
CC
CC
CC
CC
CC
FC
ENDCHAR
STARTCHAR U+00DD
ENCODING 221
SWIDTH 420 0
DWIDTH 7 0
BBX 6 10 0 0
BITMAP
08
10
00
CC
CC
CC
FC
30
30
30
ENDCHAR
STARTCHAR U+00DE
ENCODING 222
SWIDTH 420 0
DWIDTH 7 0
BBX 6 7 0 0
BITMAP
C0
FC
CC
CC
CC
FC
C0
ENDCHAR
STARTCHAR U+00DF
ENCODING 223
SWIDTH 420 0
DWIDTH 7 0
BBX 6 7 0 0
BITMAP
F8
D8
FC
CC
CC
CC
BC
ENDCHAR
STARTCHAR U+00E0
ENCODING 224
SWIDTH 420 0
DWIDTH 7 0
BBX 6 8 0 0
BITMAP
40
20
00
FC
0C
FC
CC
FC
ENDCHAR
STARTCHAR U+00E1
ENCODING 225
SWIDTH 420 0
DWIDTH 7 0
BBX 6 8 0 0
BITMAP
08
10
00
FC
0C
FC
CC
FC
ENDCHAR
STARTCHAR U+00E2
ENCODING 226
SWIDTH 420 0
DWIDTH 7 0
BBX 6 8 0 0
BITMAP
30
48
00
FC
0C
FC
CC
FC
ENDCHAR
STARTCHAR U+00E3
ENCODING 227
SWIDTH 420 0
DWIDTH 7 0
BBX 6 8 0 0
BITMAP
28
50
00
FC
0C
FC
CC
FC
ENDCHAR
STARTCHAR U+00E4
ENCODING 228
SWIDTH 420 0
DWIDTH 7 0
BBX 6 8 0 0
BITMAP
48
48
00
FC
0C
FC
CC
FC
ENDCHAR
STARTCHAR U+00E5
ENCODING 229
SWIDTH 420 0
DWIDTH 7 0
BBX 6 9 0 0
BITMAP
30
48
30
00
FC
0C
FC
CC
FC
ENDCHAR
STARTCHAR U+00E6
ENCODING 230
SWIDTH 420 0
DWIDTH 7 0
BBX 6 5 0 0
BITMAP
FC
34
FC
B0
FC
ENDCHAR
STARTCHAR U+00E7
ENCODING 231
SWIDTH 420 0
DWIDTH 7 0
BBX 6 7 0 -2
BITMAP
FC
C0
C0
C0
FC
20
40
ENDCHAR
STARTCHAR U+00E8
ENCODING 232
SWIDTH 420 0
DWIDTH 7 0
BBX 6 8 0 0
BITMAP
40
20
00
FC
CC
FC
C0
FC
ENDCHAR
STARTCHAR U+00E9
ENCODING 233
SWIDTH 420 0
DWIDTH 7 0
BBX 6 8 0 0
BITMAP
08
10
00
FC
CC
FC
C0
FC
ENDCHAR
STARTCHAR U+00EA
ENCODING 234
SWIDTH 420 0
DWIDTH 7 0
BBX 6 8 0 0
BITMAP
30
48
00
FC
CC
FC
C0
FC
ENDCHAR
STARTCHAR U+00EB
ENCODING 235
SWIDTH 420 0
DWIDTH 7 0
BBX 6 8 0 0
BITMAP
48
48
00
FC
CC
FC
C0
FC
ENDCHAR
STARTCHAR U+00EC
ENCODING 236
SWIDTH 420 0
DWIDTH 7 0
BBX 6 8 0 0
BITMAP
40
20
00
F0
30
30
30
3C
ENDCHAR
STARTCHAR U+00ED
ENCODING 237
SWIDTH 420 0
DWIDTH 7 0
BBX 6 8 0 0
BITMAP
08
10
00
F0
30
30
30
3C
ENDCHAR
STARTCHAR U+00EE
ENCODING 238
SWIDTH 420 0
DWIDTH 7 0
BBX 6 8 0 0
BITMAP
30
48
00
F0
30
30
30
3C
ENDCHAR
STARTCHAR U+00EF
ENCODING 239
SWIDTH 420 0
DWIDTH 7 0
BBX 6 8 0 0
BITMAP
48
48
00
F0
30
30
30
3C
ENDCHAR
STARTCHAR U+00F0
ENCODING 240
SWIDTH 420 0
DWIDTH 7 0
BBX 6 9 0 0
BITMAP
A0
40
A0
00
FC
CC
CC
CC
FC
ENDCHAR
STARTCHAR U+00F1
ENCODING 241
SWIDTH 420 0
DWIDTH 7 0
BBX 6 8 0 0
BITMAP
28
50
00
FC
CC
CC
CC
CC
ENDCHAR
STARTCHAR U+00F2
ENCODING 242
SWIDTH 420 0
DWIDTH 7 0
BBX 6 8 0 0
BITMAP
40
20
00
FC
CC
CC
CC
FC
ENDCHAR
STARTCHAR U+00F3
ENCODING 243
SWIDTH 420 0
DWIDTH 7 0
BBX 6 8 0 0
BITMAP
08
10
00
FC
CC
CC
CC
FC
ENDCHAR
STARTCHAR U+00F4
ENCODING 244
SWIDTH 420 0
DWIDTH 7 0
BBX 6 8 0 0
BITMAP
30
48
00
FC
CC
CC
CC
FC
ENDCHAR
STARTCHAR U+00F5
ENCODING 245
SWIDTH 420 0
DWIDTH 7 0
BBX 6 8 0 0
BITMAP
28
50
00
FC
CC
CC
CC
FC
ENDCHAR
STARTCHAR U+00F6
ENCODING 246
SWIDTH 420 0
DWIDTH 7 0
BBX 6 8 0 0
BITMAP
48
48
00
FC
CC
CC
CC
FC
ENDCHAR
STARTCHAR U+00F7
ENCODING 247
SWIDTH 420 0
DWIDTH 7 0
BBX 6 7 0 0
BITMAP
30
30
00
FC
00
30
30
ENDCHAR
STARTCHAR U+00F8
ENCODING 248
SWIDTH 420 0
DWIDTH 7 0
BBX 7 5 0 0
BITMAP
FE
CC
DC
EC
FC
ENDCHAR
STARTCHAR U+00F9
ENCODING 249
SWIDTH 420 0
DWIDTH 7 0
BBX 6 8 0 0
BITMAP
40
20
00
CC
CC
CC
CC
FC
ENDCHAR
STARTCHAR U+00FA
ENCODING 250
SWIDTH 420 0
DWIDTH 7 0
BBX 6 8 0 0
BITMAP
08
10
00
CC
CC
CC
CC
FC
ENDCHAR
STARTCHAR U+00FB
ENCODING 251
SWIDTH 420 0
DWIDTH 7 0
BBX 6 8 0 0
BITMAP
30
48
00
CC
CC
CC
CC
FC
ENDCHAR
STARTCHAR U+00FC
ENCODING 252
SWIDTH 420 0
DWIDTH 7 0
BBX 6 8 0 0
BITMAP
48
48
00
CC
CC
CC
CC
FC
ENDCHAR
STARTCHAR U+00FD
ENCODING 253
SWIDTH 420 0
DWIDTH 7 0
BBX 6 10 0 -2
BITMAP
08
10
00
CC
CC
CC
CC
FC
0C
FC
ENDCHAR
STARTCHAR U+00FE
ENCODING 254
SWIDTH 420 0
DWIDTH 7 0
BBX 6 9 0 -2
BITMAP
C0
C0
FC
CC
CC
CC
FC
C0
C0
ENDCHAR
STARTCHAR U+00FF
ENCODING 255
SWIDTH 420 0
DWIDTH 7 0
BBX 6 10 0 -2
BITMAP
48
48
00
CC
CC
CC
CC
FC
0C
FC
ENDCHAR
ENDFONT
